<svg version="1.2" xmlns="http://www.w3.org/2000/svg" viewBox="0 0 510 816" width="510" height="816"><style>.a{fill:#301708}.b{fill:#54280f}.c{fill:#a67035}.d{fill:#ca975e}.e{fill:#7f4120}.f{fill:#33140c}</style><path class="a" d="m400 100c0 0-31.9 33.6-49.8 51-18 17.5-64.9 68.6-90.8 80.7-53.4 25-102.5 30.4-134.4 22.7-28.5-6.9-49.8 7.9-49.8 7.9 0 0-74.4 26.6-62.4 45.4 7 11.1 91 9.3 149.2 7.6 60.2-1.6 150.2-40 172.9-59.4 21.8-18.6 87.2-88.7 87.2-88.7z"/><path class="b" d="m404.4 106.6c0 0-26.6 31.7-44.5 49.2-17.9 17.4-65.4 67.4-90.8 80.6-38.4 20-78.6 28.9-110.4 30.1q0 1 0.3 2.2c2.4 7.6-13.5 9.6-5.3 18.4 6.6 7 36.5 3.3 29.1 11.5-1.9 1.4-7.7 5.4-9.5 6.7-0.4 0.3 2.9-0.3 2.1-0.1 61.1-8.6 128-35.5 149.7-54 21.9-18.7 96.9-96.2 96.9-96.2z"/><path class="a" d="m178.1 260.9c0 0-5.3 3.6-8.7 12.7-3.4 9.2 5.7 10.5 16.1 15.5 10.4 5 22.7 9.5 27.2 13.2 4.6 3.7 19.1-4.6 19.1-4.6 0 0-17.5-9.4-25.8-21.1-8.3-11.8-3.7-17.8-3.7-17.8zm35.8-125c0 0-38.9 35.5-72.5 51.6-33.6 16-145.4 18.6-141.3 66 3.4 38.5 12.5 81.4 32.1 40.1 12.5-26.3 97.6-34.8 129.3-50.3 28.9-14.1 96.5-41.5 96.5-41.5z"/><path class="b" d="m223.6 140.6c0 0-40.9 32.4-72.5 51.6-40.9 24.8-145.4 18.6-141.3 66 3.4 38.5 6.5 44.7 12.7 30.7 8.5-19.4 90.6-35.1 124.8-48.1 18.6-7.1 44.9-19.5 101-43.7z"/><path class="a" d="m497.1 813.9c-26.7 4.1-79.3 0.7-92.7 1.7 2.6-48.5 4-169 3.6-222.4-0.4-53.4-9.4-124.1-12.7-131.3-21.9-21.5-34-108.9-89.5-201.6-89-128.7-148.8-163.3-153.6-174.6 0.1-27 55.5-63.2 67.9-62.2 15.7-1 80.9 81.8 143.4 186.8 42.7 73.6 70 161.6 70 161.6 0 0 18.4-125.3-4.8-184.9-29.9-90.1-64.2-152.5-64.2-152.5 0 0 4.6-11.6 30.1-24.9 22.4-15.1 43.9-7.9 43.9-7.9 0 0 33.1 59.4 58.8 166.9 37.9 135.4-20.9 287.9-20.9 287.9 0 0-1.2 76.5 0.7 140.2 4.4 77.1 13.5 159.9 20 217.2z"/><path class="c" d="m489.1 805.6c-26.2 4.1-63.5 2-76.7 3 2.5-47.7 2-159.5 1.6-212-0.4-52.5-10.6-132.2-12.8-140.4-9.9-5.1-34-100.5-82.1-192.1-68.4-112.6-151.8-168.8-157-181.2 7.1-24.3 55.1-60.2 57.6-49.1 17.9 4 68.7 76.7 130.6 172.2 24 39.7 78.2 177.9 85.4 175.7 6.1-1.8 22.6-93.7 5.5-181.1-25.6-83.7-64.4-164.5-64.4-164.5 0 0 5.5-8 24.1-19.3 13.2-7.2 20.6-10.8 27.2-6.7 23 29.7 45.6 105.7 65.2 182.3 18 87.6 1 183.9-25.3 261.8-1.1 6.1 1.5 87.8 3.3 150.5 4.3 75.7 11.5 144.6 17.8 200.9z"/><path class="d" d="m471.3 604.7c-1.8-62.7-4.4-144.4-3.3-150.5 26.3-77.9 43.3-174.2 25.4-261.8-19.7-76.6-42.3-152.6-65.4-182.3-4.6-2.9-9.6-2-16.7 1.3 74.7 108.2 93.7 315.7 44.7 442.8 4 98.7 6.2 236.5 9.1 353.6 8.3-0.4 16.6-1 24-2.2-6.3-56.3-13.5-125.2-17.8-200.9zm-143.6-405.2c65 82.6 94.7 190.3 106 189 0.7 0.5 1.4-5.5 2.1-6.7 0.2-0.3-1.1-0.5-1.8-1.2-3.9-3.8-8.4-15-14.2-27.1-19.8-42.2-52.6-119.5-69.5-147.5-61.9-95.5-112.7-168.2-130.6-172.2-1-4.3-8.9-1.5-18.6 5.1 30.9 35.8 79.7 94.6 126.6 160.6z"/><path fill-rule="evenodd" class="e" d="m439.7 560.6c4.4 9.7 6.8 25.9 5.1 36.2-1.6 10.2-6.2 21.7-14.4 31.9-0.2 0.2-0.3 0.4-0.5 0.5 2.2 55.7 4.6 119 6.7 179.1-10.3 0-19.1-0.1-24.2 0.3 2.5-47.7 2-159.5 1.6-212-0.4-52.5-10.6-132.2-12.8-140.4-9.9-5.1-34-100.5-82.1-192.1-68.4-112.6-151.8-168.8-157-181.2 1.6-5.6 5.5-11.8 10.4-17.9 36.1 33.2 85.4 82.6 123.6 135.4l40-18.1c0 0 7.5 13.3 7.5 13.3-24.2 6.2-36.7 20.2-36.7 20.2q1.8 2.7 3.6 5.4c23.9 36.7 41.7 73.6 55.1 106.2 9.4 5.6 27.3 17.1 32.4 26.8 7.1 13.3 7.7 31.2 0.6 54.8-0.8 2.6-1.4 4.8-1.9 6.8 3.3 9.9 5.5 16 7.3 17.1 7.8 5 22.4 23.3 36.5 16.2-7.4 10.1-17.1 15.2-17.1 15.2 0 0 1.2 30.1 3.1 76.5 2.6 3.1 9.7 12 13.2 19.8zm-66.8-214.5c7.8 20.4 13.8 38.5 18.3 52.8q0.4-1.5 0.8-3.2c2.2-11.3 3.8-18.5 1.1-27.7-2.8-9.2-6.6-15.9-19.2-21.5-0.3-0.1-0.6-0.3-1-0.4zm64 226.5c-1.6-5.2-5.4-10.1-9.8-15.1 0.7 16.9 1.4 35.4 2.2 55.1 2.3-1.9 5.1-3.8 6.4-6.1 4.3-7.8 4-25.2 1.2-33.9z"/><path fill-rule="evenodd" class="e" d="m475.5 336.8c-4.3 13.9-12.8 23-18.3 29.2-3.7 4.2-9.5 10.5-12.8 14.1-4.9 4.8-14.8 14.7-10.3 3-1.2-4.9 0.9-0.9 1.6-1.4 5.5-3 22.6-93.7 5.5-181.1-25.6-83.7-64.4-164.5-64.4-164.5 0 0 3.5-5.1 14.2-12.8 29.5 46.1 47.2 93.8 57.2 139.1l35.9-5.7 4.4 16.1c-19.4-5.8-36.9 6.9-36.9 6.9 5.9 32.5 7.9 63.5 7.6 91.3 7.1 7.7 13.5 25.2 16.1 32 2.8 7.1 2.8 25.6 0.2 33.8zm-11.5-48.7c-1.9-2.9-3.5-5-5-6.9q-0.3 7-0.7 13.7c1.2 0.9 2.4 1.9 3.3 3 2.8 3 4.8 7.1 5.1 11.7 0.5 5.7-0.1 12.6-1.8 17.4-2.4 6.7-6 10.5-11.6 14.1-1.2 7.2-2.5 13.8-3.8 19.8 2.4-2.5 6.6-5.5 11-10.8 5.9-7 10.6-15.7 12.1-32.8 1.3-14.9-4.6-23-8.6-29.2zm-9.8 47.1c2-1.9 4.2-4.4 5.2-6.6 2.2-4.6 2.8-13.5 2.8-17.1 0-2.5-1.2-7.2-4.3-9.8-0.9 12.1-2.2 23.3-3.7 33.5z"/><path class="a" d="m204.6 132c-1.7 5.5 2.4 23.4 27.9 48.7 25.6 25.4 35 42.2 41.2 41.4 6.2-0.9 22.9-9.3 42.1-23.5 19.1-14.2 34.4-15.6 34.2-20.1-0.2-4.4-17.6-44-28.6-59.2-10.9-15.1-28.7-36.1-34.5-34.7-5.9 1.4-18.5 7-42.9 20.8-24.5 13.7-37.7 21.2-39.4 26.6z"/><path class="b" d="m292.6 95c-5.7-3.8-17.7 9.2-25.5 10-7.8 0.7 43.8 86.4 51.5 80.5 7.6-5.9 14.3-8.3 17.1-13.5 2.7-5.2-37.3-73.3-43.1-77z"/><path class="f" d="m421.4 175c-4.5-1.4-11.4-16.6-18.6-39.9-9.3-24.8-12.4-34.3-9.1-37.5 3.2-3.1 18.8-9.4 36.9-14.1 18.1-4.6 37.8-7.8 40.8-5.7 3 2.1 9.6 23.2 15.4 36.1 5.7 12.8 10.7 33.5 9.9 43.1-3.6 2.7-15.8 5.7-37.4 9.2-27.6 4.5-33.3 10.2-37.9 8.8z"/><path class="b" d="m447.9 86.6c-5.4-1.9 13.8 69.8 21 68.3 7.1-1.6 16.9 0.2 20.6-2.4 3.6-2.6-19.6-61.5-22-65.7-2.5-4.2-14.2 1.6-19.6-0.2z"/></svg>